<svg xmlns="http://www.w3.org/2000/svg" viewBox="0 0 166.015 23.943">
  <defs>
    <linearGradient id="a" y1=".5" x2="1" y2=".5" gradientUnits="objectBoundingBox">
      <stop offset=".194" stop-color="#00afef"></stop>
      <stop offset=".656" stop-color="#7154d6"></stop>
    </linearGradient>
  </defs>
  <g data-name="Group 153">
    <path data-name="Path 1" d="M154.212 4.035h11.8V0h-16.579v4.035zm-2.577 13.949a2.754 2.754 0 11-2.754 2.754 2.754 2.754 0 012.754-2.754zm1.906-4.722h6.008V9.227h-10.116v4.035z" fill="#7154d6" fill-rule="evenodd"></path>
    <path
      data-name="Path 2"
      d="M7.82 24.8c4.685 0 7.82-2.225 7.82-5.561 0-2.966-1.921-4.382-7.415-5.528-2.359-.539-3.168-.977-3.168-1.685 0-.978 1.112-1.652 2.764-1.652a3.606 3.606 0 013.336 1.926l3.708-.91A7.328 7.328 0 007.82 7.006c-4.078 0-6.808 2.09-6.808 5.224 0 2.663 1.652 3.944 6.438 5.022 3.067.607 4.146 1.112 4.146 1.989 0 1.315-1.517 2.191-3.775 2.191S3.944 20.286 3.809 18.6H0c.135 3.708 3.269 6.2 7.82 6.2zm10.559-.472h4.045V12.972c0-1.416 1.247-2.393 3.067-2.393s3.067.978 3.067 2.393V24.33H32.6V12.972c0-1.416 1.247-2.393 3.067-2.393s3.067.978 3.067 2.393V24.33h4.045V12.567c0-3.337-2.7-5.561-6.708-5.561a7.433 7.433 0 00-5.056 2.022 6.573 6.573 0 00-4.483-2.022 5.548 5.548 0 00-4.112 1.989V7.478h-4.041V24.33zm36.116.472a8.92 8.92 0 008.73-6.2h-4.112a5.109 5.109 0 01-4.618 2.831 4.951 4.951 0 01-5.022-4.415h13.82l.337-.337V15.9c0-5.326-3.674-8.9-9.134-8.9s-9.134 3.573-9.134 8.9 3.674 8.9 9.134 8.9zm-4.753-11.154a5.089 5.089 0 019.505 0zM66.666 24.33h12.269c4.719 0 7.728-2.6 7.728-6.505a6.321 6.321 0 00-3.832-5.865 5.99 5.99 0 002.012-4.517c0-3.741-2.877-6.236-7.424-6.236H66.666V24.33zm4.353-13.78V5.142h6.4a2.794 2.794 0 013.067 2.706 2.793 2.793 0 01-3.067 2.7zm0 9.9v-6.015h7.95a3.028 3.028 0 013.337 2.986 3.091 3.091 0 01-3.371 3.029zm26.253 4.35a7.839 7.839 0 005.46-2.292v1.82h4.045V7.478h-4.045V9.3a7.839 7.839 0 00-5.46-2.292c-5.258 0-8.764 3.573-8.764 8.9s3.505 8.9 8.764 8.9zm.4-3.573c-3.067 0-5.123-2.124-5.123-5.325s2.056-5.326 5.123-5.326c3.034 0 5.056 2.124 5.056 5.326s-2.022 5.325-5.056 5.325zm12.369 3.1h4.045V14.32c0-2.225 1.652-3.741 4.112-3.741s4.112 1.523 4.112 3.741v10.01h4.045V13.848c0-4.112-3.1-6.842-7.685-6.842a6.99 6.99 0 00-4.584 1.719V7.478h-4.045V24.33zm19.537 0h4.045v-5.7l1.314-1.314 5.663 7.017h5.2l-7.955-9.842 7.146-7.011h-5.662l-5.7 5.73v-12h-4.045V24.33z"
      transform="translate(0 -.859)"
      fill="url(#a)"></path>
  </g>
</svg>